<svg width="230" height="70" viewBox="0 0 230 70" fill="none" xmlns="http://www.w3.org/2000/svg">
<path d="M85.4853 16.9393C90.5896 17.7463 95.1928 18.9757 95.1928 23.7056C95.1928 28.4354 90.0885 30.2185 85.1234 30.2185C81.8473 30.2185 77.6989 29.0548 76.1676 26.5398C76.0176 26.2548 75.9428 25.9356 75.9504 25.6129C75.9579 25.2902 76.0477 24.9749 76.211 24.6975C76.3743 24.4201 76.6055 24.19 76.8824 24.0294C77.1593 23.8688 77.4725 23.7831 77.7917 23.7807H80.8822C80.8822 27.4501 83.258 28.6513 85.1605 28.6513C87.063 28.6513 89.5873 27.4501 89.5873 23.7807C89.5873 22.2134 87.4621 21.6691 84.7986 21.2656C79.6571 20.4679 75.518 18.91 75.518 14.6963C75.518 10.2574 81.0863 8.51186 85.012 8.37109C87.9261 8.37109 92.5664 9.60048 94.0049 12.8382C94.0984 13.1179 94.1253 13.4161 94.0834 13.7083C94.0415 14.0006 93.932 14.2787 93.7638 14.5201C93.5956 14.7615 93.3734 14.9594 93.1154 15.0976C92.8573 15.2359 92.5707 15.3106 92.2787 15.3157H89.0119C89.0119 11.1677 86.4876 9.92894 85.0863 9.92894C83.4714 9.92894 81.0956 11.1677 81.0956 14.6213C81.0956 16.151 83.5086 16.6953 85.4482 16.9862L85.4853 16.9393Z" fill="white"/>
<path d="M113.123 29.6743C114.126 28.0299 114.602 26.1126 114.487 24.1843V19.0133C114.487 13.5984 113.912 9.91961 110.46 9.91961C106.07 9.91961 104.706 13.5984 104.706 19.0133V24.1843C104.662 25.7402 104.944 27.2879 105.532 28.7264V28.8015C105.698 29.1294 105.891 29.4432 106.107 29.74L106.181 29.8057H97.541L97.6895 29.6273C98.6922 27.983 99.1686 26.0657 99.0537 24.1373V6.61622C99.0537 2.64652 97.541 0.985437 97.541 0.985437H100.102C100.707 0.981711 101.307 1.09926 101.866 1.33127C102.426 1.56329 102.934 1.90517 103.362 2.33716C103.79 2.76914 104.129 3.28266 104.36 3.848C104.591 4.41334 104.708 5.0193 104.706 5.63083V11.5995C105.958 9.77884 107.434 8.36176 110.422 8.36176C117.726 8.36176 120.065 13.2699 120.065 19.3042V24.1843C120.022 25.7402 120.303 27.2879 120.891 28.7264V28.8015C121.058 29.1294 121.25 29.4432 121.466 29.74L121.531 29.815H112.9L113.049 29.6273L113.123 29.6743Z" fill="white"/>
<path d="M146.403 24.6157C146.343 26.4359 146.874 28.226 147.916 29.7115H144.064C142.552 29.7115 140.826 28.4728 140.826 26.9431C139.536 28.7637 138.041 30.1808 135.072 30.1808C127.777 30.1808 123.712 25.2726 123.712 19.2289C123.712 13.1852 127.777 8.28642 135.072 8.28642C136.308 8.2776 137.537 8.47416 138.71 8.86826C140.182 9.49733 141.767 9.8089 143.365 9.78304C144.964 9.75719 146.539 9.39448 147.99 8.71811C146.907 10.3848 146.377 12.3571 146.477 14.3489L146.403 24.6157ZM135.034 28.5103C139.424 28.5103 140.788 22.6918 140.788 19.1914C140.788 13.814 139.424 9.85365 135.034 9.85365C131.582 9.85365 129.28 13.814 129.28 19.2383C129.28 24.6626 131.582 28.6229 135.034 28.6229V28.5103Z" fill="white"/>
<path d="M173.252 24.0716C173.252 28.0319 174.764 29.7024 174.764 29.7024H172.713C171.695 29.7092 170.697 29.4165 169.84 28.86C168.983 28.3035 168.305 27.5072 167.888 26.5679C167.022 27.705 165.904 28.6203 164.624 29.2398C163.344 29.8593 161.938 30.1656 160.519 30.1341C154.227 30.1341 150.552 25.2259 150.552 19.1822C150.552 13.1385 153.79 8.24911 160.556 8.24911C161.906 8.21603 163.247 8.48975 164.479 9.05009C165.711 9.61043 166.803 10.4431 167.674 11.4868V6.56926C167.674 2.59956 166.161 0.938477 166.161 0.938477H168.175C170.7 0.938477 173.252 3.01248 173.252 5.55572V24.0716ZM161.883 28.5105C166.236 28.5105 167.637 22.6921 167.637 19.1916C167.637 13.8142 166.273 9.85388 161.883 9.85388C158.431 9.85388 156.166 13.8142 156.166 19.2385C156.166 24.6628 158.431 28.6232 161.883 28.6232V28.5105Z" fill="white"/>
<path d="M200.1 8.68994C198.266 10.5475 196.779 12.7254 195.711 15.1184L187.358 33.9628C186.971 35.0513 186.263 35.9941 185.331 36.665C184.399 37.3359 183.287 37.7028 182.143 37.7166C180.816 37.6914 179.536 37.2191 178.505 36.3746C177.684 35.5427 177.209 34.4244 177.177 33.2495C177.173 32.9358 177.229 32.6243 177.345 32.333C177.46 32.0417 177.632 31.7766 177.849 31.553C178.067 31.3294 178.326 31.1518 178.613 31.0306C178.899 30.9094 179.206 30.847 179.516 30.8471H182.755C181.242 32.3392 181.066 36.0837 182.393 36.0837C184.583 36.0837 186.022 32.7334 186.022 32.7334C186.746 31.138 186.207 28.7731 185.484 27.1683L180.324 15.4844C179.199 12.9802 177.668 10.6837 175.795 8.68994H184.964C184.89 9.1207 184.852 9.55715 184.853 9.99441C184.845 11.2896 185.117 12.5707 185.651 13.7483L190.068 23.7898L194.708 13.279C195.353 11.8557 195.541 10.2643 195.247 8.72748L200.1 8.68994Z" fill="white"/>
<path d="M88.2881 39.7065C93.5037 39.7065 94.6545 42.4375 94.6545 46.1444C94.657 46.4476 94.6003 46.7483 94.4879 47.0293C94.3754 47.3104 94.2093 47.5662 93.999 47.7824C93.7887 47.9985 93.5384 48.1706 93.2623 48.2889C92.9863 48.4072 92.6899 48.4693 92.3901 48.4718H89.0862C89.0862 48.4718 91.8147 41.3395 88.3623 41.3395C83.9726 41.3395 82.6455 44.0704 82.6455 49.4572V55.5666C82.6009 57.1226 82.8824 58.6705 83.4715 60.1087V60.1838C83.6357 60.5131 83.8282 60.8271 84.0469 61.1223L84.1118 61.1974H75.4809L75.6294 61.0097C76.0285 60.4654 76.9936 58.7573 76.9936 55.5197V45.8066C77.0137 44.3695 76.7715 42.941 76.279 41.5929C76.0954 41.1014 75.8522 40.6349 75.5551 40.2039C78.6528 41.5348 82.1449 41.5753 85.2719 40.3165C86.2537 39.9173 87.3042 39.7196 88.3623 39.7347L88.2881 39.7065Z" fill="white"/>
<path d="M112.186 61.1317C113.188 59.4873 113.665 57.5701 113.55 55.6417V50.4708C113.55 45.0558 112.974 41.377 109.522 41.377C105.132 41.377 103.768 45.0558 103.768 50.4708V55.6417C103.725 57.1976 104.006 58.7453 104.594 60.1839V60.2589C104.761 60.5868 104.953 60.9006 105.169 61.1974L105.244 61.2631H96.6128L96.752 61.0848C97.1511 60.5405 98.1162 58.8325 98.1162 55.5948V38.0737C98.1162 34.104 96.6128 32.4429 96.6128 32.4429H99.1649C100.375 32.4454 101.535 32.9326 102.391 33.798C103.247 34.6633 103.729 35.8363 103.731 37.0601V43.0287C104.993 41.2081 106.459 39.791 109.448 39.791C116.752 39.791 119.09 44.6992 119.09 50.7429V55.6135C119.047 57.1695 119.328 58.7172 119.916 60.1557V60.2308C120.083 60.5586 120.275 60.8725 120.492 61.1692L120.566 61.2443H111.926L112.074 61.0566L112.186 61.1317Z" fill="white"/>
<path d="M143.6 40.1477C141.763 42.0068 140.276 44.1883 139.211 46.5855L130.858 65.4205C130.476 66.5128 129.771 67.4594 128.837 68.1311C127.904 68.8029 126.788 69.1672 125.643 69.1744C124.316 69.1491 123.036 68.6768 122.005 67.8324C121.182 67.0015 120.707 65.8826 120.677 64.7073C120.673 64.3936 120.729 64.082 120.845 63.7907C120.96 63.4995 121.132 63.2343 121.349 63.0107C121.567 62.7871 121.826 62.6095 122.113 62.4884C122.399 62.3672 122.706 62.3048 123.016 62.3048H126.255C124.742 63.797 124.566 67.5414 125.893 67.5414C128.083 67.5414 129.522 64.2005 129.522 64.2005C130.246 62.5957 129.707 60.2308 128.984 58.6354L123.851 46.9234C122.727 44.4191 121.196 42.1226 119.323 40.1289H128.492C128.418 40.5597 128.381 40.9961 128.38 41.4334C128.371 42.7286 128.644 44.0101 129.178 45.1872L133.596 55.2288L138.236 44.718C138.881 43.2947 139.069 41.7033 138.775 40.1664L143.6 40.1477Z" fill="white"/>
<path d="M173.103 61.2069C174.111 59.5609 174.591 57.64 174.477 55.7075V49.6356C174.477 44.2582 173.549 41.5273 171.275 41.5273C167.563 41.5273 166.161 44.033 166.059 49.1288V55.6981C166.015 57.2571 166.297 58.808 166.885 60.2496V60.3247C167.048 60.6547 167.241 60.9689 167.461 61.2632L167.526 61.3383H158.978L159.127 61.16C160.129 59.5156 160.606 57.5983 160.491 55.6699V49.5324C160.491 44.1456 159.517 41.4147 157.289 41.4147C153.475 41.4147 152.036 44.1456 152.036 49.5324V55.6418C151.998 57.1973 152.28 58.7439 152.862 60.1839V60.259C153.033 60.5847 153.225 60.8983 153.438 61.1975L153.512 61.2632H144.881L145.02 61.0849C145.419 60.5406 146.394 58.8326 146.394 55.5949V45.8818C146.412 44.4441 146.166 43.0155 145.67 41.6681C145.486 41.1787 145.246 40.7126 144.955 40.2791C146.4 40.9377 147.963 41.2876 149.547 41.307C151.131 41.3264 152.702 41.0148 154.162 40.3917C155.318 39.9953 156.532 39.7986 157.753 39.8099C159.083 39.7575 160.399 40.1013 161.538 40.7987C162.676 41.4961 163.587 42.5163 164.157 43.7327C164.907 42.5363 165.943 41.5499 167.169 40.8644C168.395 40.1789 169.772 39.8163 171.173 39.8099C177.465 39.8099 180.129 44.7181 180.129 50.7618V55.6324C180.085 57.1883 180.367 58.736 180.955 60.1746V60.2496C181.121 60.5775 181.314 60.8913 181.53 61.1881L181.604 61.2632H172.973L173.113 61.0755L173.103 61.2069Z" fill="white"/>
<path d="M197.261 59.6771C202.727 59.6771 206.467 54.478 206.467 54.478C204.991 58.3633 200.639 61.6385 195.33 61.6385C188.203 61.6385 183.748 56.6553 183.748 50.6209C183.748 44.5866 188.203 39.7441 195.33 39.7441C200.973 39.7441 205.4 42.766 206.652 47.7117C206.782 48.1942 206.799 48.7006 206.702 49.1908C206.604 49.681 206.396 50.1417 206.093 50.5366C205.79 50.9315 205.4 51.2498 204.954 51.4664C204.509 51.6829 204.019 51.7919 203.525 51.7846H189.669C190.495 55.7074 192.871 59.6771 197.298 59.6771H197.261ZM193.409 41.5648C189.697 42.5783 189.094 46.6231 189.344 50.1517H199.989C200.171 50.1394 200.349 50.0891 200.511 50.004C200.674 49.9189 200.817 49.8009 200.932 49.6573C201.047 49.5137 201.131 49.3476 201.18 49.1694C201.228 48.9913 201.24 48.8049 201.214 48.622C200.564 44.474 197.66 40.4011 193.446 41.5648H193.409Z" fill="white"/>
<path d="M219.302 48.3964C224.415 49.2035 229.019 50.4329 229.019 55.1627C229.019 59.8926 223.905 61.6757 218.94 61.6757C215.673 61.6757 211.515 60.512 209.984 58.0063C209.82 57.7197 209.735 57.3945 209.735 57.0636C209.736 56.7327 209.823 56.4078 209.988 56.122C210.153 55.8362 210.39 55.5995 210.674 55.436C210.959 55.2725 211.281 55.1879 211.608 55.1909H214.662C214.662 58.8603 217.037 60.0615 218.94 60.0615C220.842 60.0615 223.367 58.8603 223.367 55.1909C223.367 53.6236 221.241 53.0793 218.587 52.6852C213.436 51.8781 209.307 50.3202 209.307 46.0596C209.307 41.6301 214.875 39.8751 218.801 39.7344C221.715 39.7344 226.355 40.9731 227.794 44.2108C227.885 44.4901 227.911 44.7872 227.868 45.0782C227.825 45.3692 227.715 45.646 227.547 45.8862C227.379 46.1264 227.158 46.3233 226.901 46.461C226.644 46.5987 226.358 46.6734 226.067 46.679H222.791C222.791 42.531 220.276 41.2922 218.866 41.2922C217.251 41.2922 214.875 42.531 214.875 45.9845C214.875 47.5142 217.288 48.0585 219.228 48.3495L219.302 48.3964Z" fill="white"/>
<path d="M21.5512 39.517L11.4399 49.6312L13.3808 51.557L23.5547 41.3801C24.5019 41.9975 25.5686 42.4083 26.6852 42.5857V62H29.4086V42.5857C30.5684 42.3868 31.6728 41.9439 32.6486 41.2862L42.6504 51.2908L44.5912 49.365L34.6052 39.3761C35.3583 38.353 35.8621 37.1682 36.0765 35.9159H54.9999V33.1917H36.0295C35.8522 32.0748 35.4415 31.0078 34.8243 30.0603L44.2156 20.6663L42.2904 18.7405L32.8991 28.1345C31.8481 27.321 30.6107 26.7829 29.2991 26.5689V8H26.6382V26.5219C25.3863 26.7363 24.2018 27.2403 23.1791 27.9936L13.6469 18.4587L11.706 20.3688L21.2695 29.9351C20.6055 30.9077 20.1621 32.0139 19.9704 33.176H0.999939V35.9003H19.9704C20.1864 37.2192 20.73 38.4627 21.5512 39.517ZM27.9999 29.1209C29.0721 29.1302 30.1175 29.4567 31.0045 30.0593C31.8915 30.6618 32.5803 31.5135 32.9842 32.5071C33.3881 33.5006 33.489 34.5914 33.2741 35.6422C33.0593 36.693 32.5383 37.6566 31.7769 38.4117C31.0155 39.1668 30.0477 39.6796 28.9954 39.8855C27.9432 40.0913 26.8535 39.981 25.8638 39.5685C24.8741 39.1559 24.0286 38.4596 23.4339 37.5672C22.8391 36.6748 22.5217 35.6263 22.5217 34.5538C22.5217 33.8364 22.6637 33.126 22.9396 32.4638C23.2154 31.8016 23.6197 31.2006 24.129 30.6955C24.6384 30.1903 25.2427 29.7911 25.907 29.5209C26.5714 29.2507 27.2827 29.1147 27.9999 29.1209Z" fill="#FADCD9" stroke="#FADCD9" stroke-miterlimit="10"/>
</svg>
